<svg overflow="hidden" xmlns:xlink="http://www.w3.org/1999/xlink" xmlns="http://www.w3.org/2000/svg" height="372" width="661"><defs><clipPath id="clip0"><rect height="372" width="661" y="0" x="0"></rect></clipPath><clipPath id="clip1"><rect height="31" width="32" y="124" x="519"></rect></clipPath><clipPath id="clip2"><rect height="31" width="32" y="124" x="519"></rect></clipPath><clipPath id="clip3"><rect height="31" width="32" y="124" x="519"></rect></clipPath><clipPath id="clip4"><rect height="31" width="31" y="124" x="477"></rect></clipPath><clipPath id="clip5"><rect height="31" width="31" y="124" x="477"></rect></clipPath><clipPath id="clip6"><rect height="31" width="31" y="124" x="477"></rect></clipPath><clipPath id="clip7"><rect height="31" width="31" y="124" x="561"></rect></clipPath><clipPath id="clip8"><rect height="31" width="31" y="124" x="561"></rect></clipPath><clipPath id="clip9"><rect height="31" width="31" y="124" x="561"></rect></clipPath></defs><g clip-path="url(#clip0)"><path transform="scale(1 1.0005)" fill="#FFFFFF" d="M0 0 661 0 661 371.812 0 371.812Z"></path><text transform="matrix(0.82625 0 0 0.826667 17.71 41)" font-size="33" font-weight="700" font-family="Poppins,Poppins_MSFontService,sans-serif" fill="#FE5000">STEPS TO UPLOAD ASSETS <tspan y="20.5645" x="0" font-size="15" fill="#595959">DATA</tspan><tspan y="20.5645" x="42" font-size="15" fill="#595959">, </tspan><tspan y="20.5645" x="49" font-size="15" fill="#595959">ALGO </tspan><tspan y="20.5645" x="93" font-size="15" fill="#595959">&amp; </tspan><tspan y="20.5645" x="108" font-size="15" fill="#595959">UX ASSETS </tspan><tspan y="20.5645" x="192.917" font-size="15" fill="#595959">–</tspan><tspan y="20.5645" x="206.562" font-size="15" fill="#595959">single </tspan><tspan y="20.5645" x="254.562" font-size="15" fill="#595959">&amp; </tspan><tspan y="20.5645" x="269.562" font-size="15" fill="#595959">bulk</tspan></text><path transform="scale(1 1.0005)" fill-rule="evenodd" fill="#F2F2F2" stroke-miterlimit="8" stroke-width="1.54922" stroke="#FE5000" d="M48.7488 104.245C48.7488 99.15 52.8797 95.0188 57.9754 95.0188L132.888 95.0188C137.984 95.0188 142.115 99.15 142.115 104.245L142.115 141.151C142.115 146.246 137.984 150.378 132.888 150.378L57.9754 150.378C52.8797 150.378 48.7488 146.246 48.7488 141.151Z"></path><text transform="matrix(0.82625 0 0 0.826667 70.3222 120)" font-size="15" font-weight="700" font-family="Poppins,Poppins_MSFontService,sans-serif" fill="#595959">UPLOAD <tspan y="18.1452" x="7.1875" font-size="15">ASSET</tspan><tspan y="-2.41935" x="109.883" font-size="8" font-weight="400">DATA TRANSFER</tspan></text><path transform="scale(1 1.0005)" fill-rule="evenodd" fill="#FBE5D6" stroke-miterlimit="8" stroke-width="1.54922" stroke="#FE5000" d="M225.566 112.095C225.566 109.965 227.292 108.239 229.422 108.239L387.786 108.239C389.916 108.239 391.643 109.965 391.643 112.095L391.643 127.518C391.643 129.648 389.916 131.374 387.786 131.374L229.422 131.374C227.292 131.374 225.566 129.648 225.566 127.518Z"></path><text transform="matrix(0.82625 0 0 0.826667 268.611 124)" font-size="15" font-weight="400" font-family="Poppins,Poppins_MSFontService,sans-serif" fill="#595959">SANITIZATION</text><path transform="scale(1 1.0005)" fill-rule="evenodd" fill="#FBE5D6" d="M327.195 146.143C327.195 149.736 342.362 152.65 361.071 152.65 379.781 152.65 394.948 149.736 394.948 146.143L394.948 185.183C394.948 188.777 379.781 191.69 361.071 191.69 342.362 191.69 327.195 188.777 327.195 185.183Z"></path><path transform="scale(1 1.0005)" fill-rule="evenodd" fill="#FDEFE6" d="M327.195 146.143C327.195 142.55 342.362 139.636 361.071 139.636 379.781 139.636 394.948 142.55 394.948 146.143 394.948 149.736 379.781 152.65 361.071 152.65 342.362 152.65 327.195 149.736 327.195 146.143Z"></path><path transform="scale(1 1.0005)" fill-rule="evenodd" fill="none" stroke-miterlimit="8" stroke-width="1.54922" stroke="#FE5000" d="M394.948 146.143C394.948 149.736 379.781 152.65 361.071 152.65 342.362 152.65 327.195 149.736 327.195 146.143 327.195 142.55 342.362 139.636 361.071 139.636 379.781 139.636 394.948 142.55 394.948 146.143L394.948 185.183C394.948 188.777 379.781 191.69 361.071 191.69 342.362 191.69 327.195 188.777 327.195 185.183L327.195 146.143"></path><text transform="matrix(0.82625 0 0 0.826667 338.168 167)" font-size="12" font-weight="400" font-family="Poppins,Poppins_MSFontService,sans-serif" fill="#595959">SANITIZED<tspan y="14.5161" x="11.6667" font-size="12">TABL</tspan><tspan y="14.5161" x="38.0208" font-size="12">E</tspan></text><path transform="scale(1 1.0005)" fill="#FE5000" d="M293.325 165.302 294.875 165.314 294.861 166.864 293.312 166.85ZM296.424 165.328 297.973 165.341 297.96 166.89 296.411 166.877ZM299.516 165.353 301.065 165.353 301.065 166.902 299.516 166.902ZM302.63 165.36 304.178 165.391 304.147 166.941 302.598 166.908ZM305.731 165.427 306.986 165.457 307.308 165.477 307.211 167.023 306.904 167.004 306.933 167.006 305.693 166.975ZM308.843 165.571 309.762 165.614 310.16 165.671 310.457 165.714 310.238 167.247 309.94 167.205 309.579 167.153 309.652 167.159 308.77 167.118ZM311.942 165.793 313.197 165.871 313.168 165.87 313.459 165.877 313.422 167.426 313.115 167.418 311.846 167.339ZM315.009 165.915 315.285 165.922 315.282 165.922 316.555 165.947 316.522 167.497 315.249 167.47 314.971 167.464ZM318.087 165.973 319.636 165.973 319.636 167.522 318.087 167.522ZM321.192 165.978 322.742 165.99 322.728 167.54 321.179 167.527ZM322.154 164.436 326.782 166.799 322.115 169.084Z"></path><path transform="scale(1 1.0005)" fill-rule="evenodd" fill="#FBE5D6" d="M225.566 146.143C225.566 149.736 240.733 152.65 259.443 152.65 278.152 152.65 293.319 149.736 293.319 146.143L293.319 185.183C293.319 188.777 278.152 191.69 259.443 191.69 240.733 191.69 225.566 188.777 225.566 185.183Z"></path><path transform="scale(1 1.0005)" fill-rule="evenodd" fill="#FDEFE6" d="M225.566 146.143C225.566 142.55 240.733 139.636 259.443 139.636 278.152 139.636 293.319 142.55 293.319 146.143 293.319 149.736 278.152 152.65 259.443 152.65 240.733 152.65 225.566 149.736 225.566 146.143Z"></path><path transform="scale(1 1.0005)" fill-rule="evenodd" fill="none" stroke-miterlimit="8" stroke-width="1.54922" stroke="#FE5000" d="M293.319 146.143C293.319 149.736 278.152 152.65 259.443 152.65 240.733 152.65 225.566 149.736 225.566 146.143 225.566 142.55 240.733 139.636 259.443 139.636 278.152 139.636 293.319 142.55 293.319 146.143L293.319 185.183C293.319 188.777 278.152 191.69 259.443 191.69 240.733 191.69 225.566 188.777 225.566 185.183L225.566 146.143"></path><text transform="matrix(0.82625 0 0 0.826667 238.603 167)" font-size="12" font-weight="400" font-family="Poppins,Poppins_MSFontService,sans-serif" fill="#595959">STAGING<tspan y="14.5161" x="9.00833" font-size="12">TABL</tspan><tspan y="14.5161" x="35.3625" font-size="12">E</tspan></text><path transform="scale(1 1.0005)" fill-rule="evenodd" fill="#FBE5D6" stroke-miterlimit="8" stroke-width="1.54922" stroke="#FE5000" d="M474.268 101.767C474.268 98.0395 477.288 95.0188 481.015 95.0188L588.152 95.0188C591.879 95.0188 594.9 98.0395 594.9 101.767L594.9 128.757C594.9 132.484 591.879 135.505 588.152 135.505L481.015 135.505C477.288 135.505 474.268 132.484 474.268 128.757Z"></path><text transform="matrix(0.82625 0 0 0.826667 487.678 116)" font-size="15" font-weight="400" font-family="Poppins,Poppins_MSFontService,sans-serif" fill="#595959">AZURE GIT REPO<tspan y="12.0968" x="5.3667" font-size="8">Platform</tspan><tspan y="12.0968" x="42.7625" font-size="8">reusable</tspan><tspan y="12.0968" x="81.5125" font-size="8">asset</tspan><tspan y="12.0968" x="104.117" font-size="8">s</tspan></text><path transform="scale(1 1.0005)" fill="#FE5000" d="M142.528 123.18 144.594 123.18 144.594 123.869 142.528 123.869ZM145.282 123.18 147.348 123.18 147.348 123.869 145.282 123.869ZM148.037 123.18 150.102 123.18 150.102 123.869 148.037 123.869ZM150.791 123.18 152.856 123.18 152.856 123.869 150.791 123.869ZM153.545 123.18 155.61 123.18 155.61 123.869 153.545 123.869ZM156.299 123.18 158.365 123.18 158.365 123.869 156.299 123.869ZM159.053 123.18 161.119 123.18 161.119 123.869 159.053 123.869ZM161.807 123.18 163.873 123.18 163.873 123.869 161.807 123.869ZM164.562 123.18 166.627 123.18 166.627 123.869 164.562 123.869ZM167.316 123.18 169.381 123.18 169.381 123.869 167.316 123.869ZM170.07 123.18 172.135 123.18 172.135 123.869 170.07 123.869ZM172.824 123.18 174.89 123.18 174.89 123.869 172.824 123.869ZM175.578 123.18 177.644 123.18 177.644 123.869 175.578 123.869ZM178.332 123.18 180.398 123.18 180.398 123.869 178.332 123.869ZM181.087 123.18 183.152 123.18 183.152 123.869 181.087 123.869ZM183.841 123.18 184.245 123.18 184.245 125.531 183.556 125.531 183.556 123.524 183.9 123.869 183.841 123.869ZM184.245 126.219 184.245 128.284 183.556 128.284 183.556 126.219ZM184.245 128.973 184.245 131.038 183.556 131.038 183.556 128.973ZM184.245 131.727 184.245 133.793 183.556 133.793 183.556 131.727ZM184.245 134.481 184.245 136.547 183.556 136.547 183.556 134.481ZM184.245 137.235 184.245 139.301 183.556 139.301 183.556 137.235ZM184.245 139.99 184.245 142.056 183.556 142.056 183.556 139.99ZM184.245 142.744 184.245 144.809 183.556 144.809 183.556 142.744ZM184.245 145.498 184.245 147.563 183.556 147.563 183.556 145.498ZM184.245 148.252 184.245 150.318 183.556 150.318 183.556 148.252ZM184.245 151.006 184.245 153.072 183.556 153.072 183.556 151.006ZM184.245 153.76 184.245 155.826 183.556 155.826 183.556 153.76ZM184.245 156.515 184.245 158.581 183.556 158.581 183.556 156.515ZM184.245 159.269 184.245 161.334 183.556 161.334 183.556 159.269ZM184.245 162.023 184.245 164.088 183.556 164.088 183.556 162.023ZM184.245 164.777 184.245 166.471 183.9 166.127 184.272 166.127 184.272 166.816 183.556 166.816 183.556 164.777ZM184.96 166.127 187.026 166.127 187.026 166.816 184.96 166.816ZM187.715 166.127 189.781 166.127 189.781 166.816 187.715 166.816ZM190.469 166.127 192.534 166.127 192.534 166.816 190.469 166.816ZM193.223 166.127 195.288 166.127 195.288 166.816 193.223 166.816ZM195.977 166.127 198.043 166.127 198.043 166.816 195.977 166.816ZM198.731 166.127 200.797 166.127 200.797 166.816 198.731 166.816ZM201.485 166.127 203.551 166.127 203.551 166.816 201.485 166.816ZM204.24 166.127 206.306 166.127 206.306 166.816 204.24 166.816ZM206.994 166.127 209.059 166.127 209.059 166.816 206.994 166.816ZM209.748 166.127 211.813 166.127 211.813 166.816 209.748 166.816ZM212.502 166.127 214.568 166.127 214.568 166.816 212.502 166.816ZM215.256 166.127 217.322 166.127 217.322 166.816 215.256 166.816ZM218.01 166.127 220.076 166.127 220.076 166.816 218.01 166.816ZM220.765 166.127 221.83 166.127 221.83 166.816 220.765 166.816ZM221.142 164.406 225.273 166.471 221.142 168.537Z"></path><g clip-path="url(#clip1)"><g clip-path="url(#clip2)"><g clip-path="url(#clip3)"><path transform="matrix(1.02726 0 0 1 519.711 124.827)" d="M23.87 24.49 23.87 5.89C23.87 4.07774 19.2383 3.1 14.88 3.1 10.5217 3.1 5.89 4.07774 5.89 5.89L5.89 24.49C5.89 26.3022 10.5217 27.28 14.88 27.28 19.2383 27.28 23.87 26.3022 23.87 24.49ZM14.88 3.72C19.6705 3.72 23.25 4.867 23.25 5.89 23.25 6.913 19.6705 8.06 14.88 8.06 10.0895 8.06 6.51 6.913 6.51 5.89 6.51 4.867 10.0895 3.72 14.88 3.72ZM6.51 6.9626C7.91399 8.0848 11.4803 8.68 14.88 8.68 18.2797 8.68 21.846 8.0848 23.25 6.9626L23.25 12.09C23.25 13.113 19.6705 14.26 14.88 14.26 10.0895 14.26 6.51 13.113 6.51 12.09ZM6.51 13.1626C7.91399 14.2848 11.4803 14.88 14.88 14.88 18.2797 14.88 21.846 14.2848 23.25 13.1626L23.25 18.29C23.25 19.313 19.6705 20.46 14.88 20.46 10.0895 20.46 6.51 19.313 6.51 18.29ZM6.51 24.49 6.51 19.3626C7.91399 20.4848 11.4803 21.08 14.88 21.08 18.2797 21.08 21.846 20.4848 23.25 19.3626L23.25 24.49C23.25 25.513 19.6705 26.66 14.88 26.66 10.0895 26.66 6.51 25.513 6.51 24.49Z"></path><path transform="matrix(1.02726 0 0 1 519.711 124.827)" d="M21.7 11.16C21.7 11.5024 21.4224 11.78 21.08 11.78 20.7376 11.78 20.46 11.5024 20.46 11.16 20.46 10.8176 20.7376 10.54 21.08 10.54 21.4224 10.54 21.7 10.8176 21.7 11.16Z"></path><path transform="matrix(1.02726 0 0 1 519.711 124.827)" d="M21.7 17.36C21.7 17.7024 21.4224 17.98 21.08 17.98 20.7376 17.98 20.46 17.7024 20.46 17.36 20.46 17.0176 20.7376 16.74 21.08 16.74 21.4224 16.74 21.7 17.0176 21.7 17.36Z"></path><path transform="matrix(1.02726 0 0 1 519.711 124.827)" d="M21.7 23.56C21.7 23.9024 21.4224 24.18 21.08 24.18 20.7376 24.18 20.46 23.9024 20.46 23.56 20.46 23.2176 20.7376 22.94 21.08 22.94 21.4224 22.94 21.7 23.2176 21.7 23.56Z"></path></g></g></g><g clip-path="url(#clip4)"><g clip-path="url(#clip5)"><g clip-path="url(#clip6)"><path transform="scale(1 1.0005)" d="M501.43 149.241 501.43 130.651C501.43 128.84 496.801 127.862 492.445 127.862 488.089 127.862 483.46 128.84 483.46 130.651L483.46 149.241C483.46 151.053 488.089 152.03 492.445 152.03 496.801 152.03 501.43 151.053 501.43 149.241ZM492.445 128.482C497.233 128.482 500.811 129.628 500.811 130.651 500.811 131.674 497.233 132.82 492.445 132.82 487.657 132.82 484.079 131.674 484.079 130.651 484.079 129.628 487.657 128.482 492.445 128.482ZM484.079 131.723C485.482 132.844 489.047 133.439 492.445 133.439 495.843 133.439 499.408 132.844 500.811 131.723L500.811 136.848C500.811 137.871 497.233 139.017 492.445 139.017 487.657 139.017 484.079 137.871 484.079 136.848ZM484.079 137.92C485.482 139.041 489.047 139.636 492.445 139.636 495.843 139.636 499.408 139.041 500.811 137.92L500.811 143.045C500.811 144.067 497.233 145.213 492.445 145.213 487.657 145.213 484.079 144.067 484.079 143.045ZM484.079 149.241 484.079 144.117C485.482 145.238 489.047 145.833 492.445 145.833 495.843 145.833 499.408 145.238 500.811 144.117L500.811 149.241C500.811 150.264 497.233 151.41 492.445 151.41 487.657 151.41 484.079 150.264 484.079 149.241Z"></path><path transform="scale(1 1.0005)" d="M499.262 135.918C499.262 136.26 498.984 136.538 498.642 136.538 498.3 136.538 498.022 136.26 498.022 135.918 498.022 135.576 498.3 135.298 498.642 135.298 498.984 135.298 499.262 135.576 499.262 135.918Z"></path><path transform="scale(1 1.0005)" d="M499.262 142.115C499.262 142.457 498.984 142.735 498.642 142.735 498.3 142.735 498.022 142.457 498.022 142.115 498.022 141.773 498.3 141.495 498.642 141.495 498.984 141.495 499.262 141.773 499.262 142.115Z"></path><path transform="scale(1 1.0005)" d="M499.262 148.312C499.262 148.654 498.984 148.932 498.642 148.932 498.3 148.932 498.022 148.654 498.022 148.312 498.022 147.97 498.3 147.692 498.642 147.692 498.984 147.692 499.262 147.97 499.262 148.312Z"></path></g></g></g><g clip-path="url(#clip7)"><g clip-path="url(#clip8)"><g clip-path="url(#clip9)"><path transform="matrix(1.02726 0 0 1 561.024 124.827)" d="M23.87 24.49 23.87 5.89C23.87 4.07774 19.2383 3.1 14.88 3.1 10.5217 3.1 5.89 4.07774 5.89 5.89L5.89 24.49C5.89 26.3022 10.5217 27.28 14.88 27.28 19.2383 27.28 23.87 26.3022 23.87 24.49ZM14.88 3.72C19.6705 3.72 23.25 4.867 23.25 5.89 23.25 6.913 19.6705 8.06 14.88 8.06 10.0895 8.06 6.51 6.913 6.51 5.89 6.51 4.867 10.0895 3.72 14.88 3.72ZM6.51 6.9626C7.91399 8.0848 11.4803 8.68 14.88 8.68 18.2797 8.68 21.846 8.0848 23.25 6.9626L23.25 12.09C23.25 13.113 19.6705 14.26 14.88 14.26 10.0895 14.26 6.51 13.113 6.51 12.09ZM6.51 13.1626C7.91399 14.2848 11.4803 14.88 14.88 14.88 18.2797 14.88 21.846 14.2848 23.25 13.1626L23.25 18.29C23.25 19.313 19.6705 20.46 14.88 20.46 10.0895 20.46 6.51 19.313 6.51 18.29ZM6.51 24.49 6.51 19.3626C7.91399 20.4848 11.4803 21.08 14.88 21.08 18.2797 21.08 21.846 20.4848 23.25 19.3626L23.25 24.49C23.25 25.513 19.6705 26.66 14.88 26.66 10.0895 26.66 6.51 25.513 6.51 24.49Z"></path><path transform="matrix(1.02726 0 0 1 561.024 124.827)" d="M21.7 11.16C21.7 11.5024 21.4224 11.78 21.08 11.78 20.7376 11.78 20.46 11.5024 20.46 11.16 20.46 10.8176 20.7376 10.54 21.08 10.54 21.4224 10.54 21.7 10.8176 21.7 11.16Z"></path><path transform="matrix(1.02726 0 0 1 561.024 124.827)" d="M21.7 17.36C21.7 17.7024 21.4224 17.98 21.08 17.98 20.7376 17.98 20.46 17.7024 20.46 17.36 20.46 17.0176 20.7376 16.74 21.08 16.74 21.4224 16.74 21.7 17.0176 21.7 17.36Z"></path><path transform="matrix(1.02726 0 0 1 561.024 124.827)" d="M21.7 23.56C21.7 23.9024 21.4224 24.18 21.08 24.18 20.7376 24.18 20.46 23.9024 20.46 23.56 20.46 23.2176 20.7376 22.94 21.08 22.94 21.4224 22.94 21.7 23.2176 21.7 23.56Z"></path></g></g></g><text transform="matrix(0.82625 0 0 0.826667 437.641 175)" font-size="8" font-weight="400" font-family="Poppins,Poppins_MSFontService,sans-serif" fill="#595959">DATA COPIES<tspan y="-18.1452" x="105.474" font-size="8" font-family="Calibri,Calibri_MSFontService,sans-serif" fill="#0563C1">ASSETS</tspan></text><path transform="scale(1 1.0005)" fill-rule="evenodd" fill="#0563C1" d="M524.789 160.336 529.746 160.336 534.704 160.336 539.661 160.336 544.619 160.336 544.619 161.163 539.661 161.163 534.704 161.163 529.746 161.163 524.789 161.163Z"></path><path transform="matrix(1 0 0 -1.0005 395.361 166.034)" fill="#FE5000" d="M0.000810227-0.34427 2.06643-0.339409 2.06481 0.349131-0.000810227 0.34427ZM2.75497-0.337788 4.82059-0.332927 4.81897 0.355613 2.75335 0.350751ZM5.50913-0.331306 7.57475-0.326445 7.57313 0.362095 5.50751 0.357233ZM8.26333-0.324824 10.3289-0.319963 10.3273 0.368577 8.26167 0.363715ZM11.0175-0.318343 13.0831-0.313481 13.0814 0.375059 11.0158 0.370197ZM13.7716-0.311861 15.8372-0.307 15.8356 0.38154 13.77 0.376679ZM16.5257-0.305379 18.5914-0.300518 18.5898 0.388022 16.5242 0.383161ZM19.2799-0.298897 21.3455-0.294036 21.3439 0.394504 19.2783 0.389643ZM22.0341-0.292416 24.0997-0.287554 24.0981 0.400986 22.0325 0.396124ZM24.7882-0.285934 26.8539-0.281072 26.8522 0.407468 24.7866 0.402606ZM27.5424-0.279452 29.608-0.27459 29.6064 0.41395 27.5408 0.409088ZM30.2965-0.27297 32.3621-0.268108 32.3606 0.420432 30.295 0.41557ZM33.0507-0.266488 35.1164-0.261626 35.1147 0.426913 33.0491 0.422052ZM35.8049-0.260006 37.8705-0.255145 37.8689 0.433395 35.8032 0.428534ZM38.559-0.253524 40.6246-0.248663 40.623 0.439876 38.5575 0.435016ZM41.3132-0.247043 43.3788-0.242181 43.3772 0.446358 41.3116 0.441497ZM44.0674-0.240561 46.1329-0.235699 46.1314 0.45284 44.0657 0.447979ZM46.8215-0.234079 48.8871-0.229217 48.8855 0.459322 46.8199 0.454461ZM49.5757-0.227597 51.6413-0.222736 51.6396 0.465804 49.574 0.460943ZM52.3298-0.221115 54.3954-0.216254 54.3938 0.472286 52.3282 0.467425ZM55.0839-0.214633 57.1496-0.209772 57.148 0.478767 55.0824 0.473906ZM57.8382-0.208151 59.9038-0.203291 59.9021 0.485249 57.8365 0.480388ZM60.5923-0.20167 62.6579-0.196809 62.6563 0.491731 60.5906 0.48687ZM63.3464-0.195188 65.4121-0.190327 65.4104 0.498213 63.3449 0.493351ZM66.1006-0.188706 68.1662-0.183845 68.1646 0.504695 66.099 0.499833ZM68.8548-0.182224 70.9204-0.177363 70.9188 0.511177 68.8531 0.506315ZM71.6089-0.175743 73.6746-0.170881 73.6729 0.517659 71.6073 0.512797ZM74.3631-0.169261 76.4287-0.1644 76.4271 0.52414 74.3615 0.519279ZM77.1172-0.162779 79.1828-0.157918 79.1813 0.530622 77.1156 0.525761ZM79.8714-0.156297 81.9371-0.151436 81.9354 0.537104 79.8698 0.532243ZM82.6258-0.149816 84.6915-0.144954 84.6898 0.543586 82.6239 0.538724ZM85.3797-0.143334 87.4453-0.138472 87.4437 0.550068 85.3781 0.545206ZM88.1336-0.136852 90.1992-0.13199 90.1976 0.55655 88.132 0.551688ZM90.8883-0.13037 92.9539-0.125508 92.9523 0.563032 90.8867 0.55817ZM93.6422-0.123888 95.7078-0.119027 95.7062 0.569513 93.6406 0.564652ZM96.3961-0.117406 98.4617-0.112545 98.4601 0.575995 96.3945 0.571134ZM99.1508-0.110924 101.216-0.106063 101.215 0.582476 99.1492 0.577616ZM101.905-0.104443 103.97-0.0995813 103.969 0.588958 101.903 0.584098ZM104.659-0.097961 106.724-0.0930994 106.723 0.59544 104.657 0.590579ZM107.413-0.0914791 109.479-0.0866174 109.477 0.601922 107.412 0.597061ZM110.167-0.0849972 112.233-0.0801357 112.231 0.608404 110.166 0.603543ZM112.921-0.0785152 114.987-0.0736538 114.985 0.614886 112.919 0.610025ZM115.676-0.0720334 117.741-0.0671721 117.74 0.621368 115.674 0.616506ZM118.43-0.0655515 120.495-0.0606902 120.494 0.627849 118.428 0.622988ZM121.184-0.0590698 123.249-0.0542084 123.248 0.634331 121.182 0.62947ZM123.938-0.0525879 126.004-0.0477266 126.002 0.640813 123.937 0.635952ZM126.692-0.0461062 128.758-0.0412447 128.756 0.647295 126.691 0.642433ZM129.446-0.0396243 131.512-0.0347629 131.51 0.653777 129.444 0.648915ZM132.201-0.0331425 134.266-0.0282811 134.265 0.660259 132.199 0.655397ZM134.955-0.0266607 137.02-0.0217993 137.019 0.666741 134.953 0.661879ZM137.752-1.82366 140.43 1.94006 135.812 1.82374Z"></path><path transform="scale(1 1.0005)" fill-rule="evenodd" fill="#FBE5D6" stroke-miterlimit="8" stroke-width="1.54922" stroke="#FE5000" d="M462.7 240.577C462.7 229.549 471.64 220.609 482.668 220.609L562.538 220.609C573.566 220.609 582.506 229.549 582.506 240.577L582.506 324.578C582.506 335.606 573.566 344.546 562.538 344.546L482.668 344.546C471.64 344.546 462.7 335.606 462.7 324.578Z"></path><text transform="matrix(0.82625 0 0 0.826667 501.463 287)" font-size="15" font-weight="400" font-family="Calibri,Calibri_MSFontService,sans-serif" fill="#595959">HASURA</text><path transform="matrix(-1 0 0 1.0005 594.998 116.147)" fill="#FE5000" d="M0 0.344271-2.06562 0.344271-2.06562-0.344271 0-0.344271ZM-2.75416 0.344271-4.81979 0.344271-4.81979-0.344271-2.75416-0.344271ZM-5.50834 0.344271-7.57396 0.344271-7.57396-0.344271-5.50834-0.344271ZM-8.2625 0.344271-10.3281 0.344271-10.3281-0.344271-8.2625-0.344271ZM-11.0166 0.344271-12.3938 0.344271-12.0496 0-12.0496 0.688422-12.7381 0.688422-12.7381-0.344271-11.0166-0.344271ZM-12.0496 1.37696-12.0496 3.44259-12.7381 3.44259-12.7381 1.37696ZM-12.0496 4.13113-12.0496 6.19676-12.7381 6.19676-12.7381 4.13113ZM-12.0496 6.8853-12.0496 8.95093-12.7381 8.95093-12.7381 6.8853ZM-12.0496 9.63945-12.0496 11.7051-12.7381 11.7051-12.7381 9.63945ZM-12.0496 12.3937-12.0496 14.4593-12.7381 14.4593-12.7381 12.3937ZM-12.0496 15.1478-12.0496 17.2134-12.7381 17.2134-12.7381 15.1478ZM-12.0496 17.9019-12.0496 19.9676-12.7381 19.9676-12.7381 17.9019ZM-12.0496 20.6562-12.0496 22.7218-12.7381 22.7218-12.7381 20.6562ZM-12.0496 23.4103-12.0496 25.4759-12.7381 25.4759-12.7381 23.4103ZM-12.0496 26.1644-12.0496 28.2301-12.7381 28.2301-12.7381 26.1644ZM-12.0496 28.9187-12.0496 30.9843-12.7381 30.9843-12.7381 28.9187ZM-12.0496 31.6728-12.0496 33.7384-12.7381 33.7384-12.7381 31.6728ZM-12.0496 34.4269-12.0496 36.4926-12.7381 36.4926-12.7381 34.4269ZM-12.0496 37.1812-12.0496 39.2468-12.7381 39.2468-12.7381 37.1812ZM-12.0496 39.9353-12.0496 42.0009-12.7381 42.0009-12.7381 39.9353ZM-12.0496 42.6894-12.0496 44.7551-12.7381 44.7551-12.7381 42.6894ZM-12.0496 45.4437-12.0496 47.5093-12.7381 47.5093-12.7381 45.4437ZM-12.0496 48.1978-12.0496 50.2634-12.7381 50.2634-12.7381 48.1978ZM-12.0496 50.9519-12.0496 53.0176-12.7381 53.0176-12.7381 50.9519ZM-12.0496 53.7062-12.0496 55.7718-12.7381 55.7718-12.7381 53.7062ZM-12.0496 56.4603-12.0496 58.5259-12.7381 58.5259-12.7381 56.4603ZM-12.0496 59.2144-12.0496 61.2801-12.7381 61.2801-12.7381 59.2144ZM-12.0496 61.9687-12.0496 64.0343-12.7381 64.0343-12.7381 61.9687ZM-12.0496 64.7228-12.0496 66.7884-12.7381 66.7884-12.7381 64.7228ZM-12.0496 67.4769-12.0496 69.5426-12.7381 69.5426-12.7381 67.4769ZM-12.0496 70.2312-12.0496 72.2968-12.7381 72.2968-12.7381 70.2312ZM-12.0496 72.9853-12.0496 75.0509-12.7381 75.0509-12.7381 72.9853ZM-12.0496 75.7394-12.0496 77.8051-12.7381 77.8051-12.7381 75.7394ZM-12.0496 78.4937-12.0496 80.5593-12.7381 80.5593-12.7381 78.4937ZM-12.0496 81.2478-12.0496 83.3133-12.7381 83.3133-12.7381 81.2478ZM-12.0496 84.0024-12.0496 86.068-12.7381 86.068-12.7381 84.0024ZM-12.0496 86.7562-12.0496 88.8219-12.7381 88.8219-12.7381 86.7562ZM-12.0496 89.5101-12.0496 91.5758-12.7381 91.5758-12.7381 89.5101ZM-12.0496 92.2649-12.0496 94.3305-12.7381 94.3305-12.7381 92.2649ZM-12.0496 95.0188-12.0496 97.0844-12.7381 97.0844-12.7381 95.0188ZM-12.0496 97.7726-12.0496 99.8383-12.7381 99.8383-12.7381 97.7726ZM-12.0496 100.527-12.0496 102.593-12.7381 102.593-12.7381 100.527ZM-12.0496 103.281-12.0496 105.347-12.7381 105.347-12.7381 103.281ZM-12.0496 106.035-12.0496 108.101-12.7381 108.101-12.7381 106.035ZM-12.0496 108.79-12.0496 110.855-12.7381 110.855-12.7381 108.79ZM-12.0496 111.544-12.0496 113.609-12.7381 113.609-12.7381 111.544ZM-12.0496 114.298-12.0496 116.363-12.7381 116.363-12.7381 114.298ZM-12.0496 117.052-12.0496 119.118-12.7381 119.118-12.7381 117.052ZM-12.0496 119.806-12.0496 121.872-12.7381 121.872-12.7381 119.806ZM-12.0496 122.56-12.0496 124.626-12.7381 124.626-12.7381 122.56ZM-12.0496 125.315-12.0496 127.38-12.7381 127.38-12.7381 125.315ZM-12.0496 128.069-12.0496 130.134-12.7381 130.134-12.7381 128.069ZM-12.0496 130.823-12.0496 132.888-12.7381 132.888-12.7381 130.823ZM-12.0496 133.577-12.0496 135.643-12.7381 135.643-12.7381 133.577ZM-12.0496 136.331-12.0496 138.397-12.7381 138.397-12.7381 136.331ZM-12.0496 139.085-12.0496 141.151-12.7381 141.151-12.7381 139.085ZM-12.0496 141.84-12.0496 143.905-12.7381 143.905-12.7381 141.84ZM-12.0496 144.594-12.0496 146.659-12.7381 146.659-12.7381 144.594ZM-12.0496 147.348-12.0496 149.413-12.7381 149.413-12.7381 147.348ZM-12.0496 150.102-12.0496 152.168-12.7381 152.168-12.7381 150.102ZM-12.0496 152.856-12.0496 154.922-12.7381 154.922-12.7381 152.856ZM-12.0496 155.61-12.0496 157.676-12.7381 157.676-12.7381 155.61ZM-12.0496 158.365-12.0496 160.43-12.7381 160.43-12.7381 158.365ZM-12.0496 161.119-12.0496 163.184-12.7381 163.184-12.7381 161.119ZM-12.0496 163.873-12.0496 165.938-12.7381 165.938-12.7381 163.873ZM-12.0496 166.627-12.0496 167.153-12.3938 166.808-10.854 166.808-10.854 167.497-12.7381 167.497-12.7381 166.627ZM-10.1654 166.808-8.09977 166.808-8.09977 167.497-10.1654 167.497ZM-7.41123 166.808-5.3456 166.808-5.3456 167.497-7.41123 167.497ZM-4.65706 166.808-2.59143 166.808-2.59143 167.497-4.65706 167.497ZM-1.9029 166.808 0.162732 166.808 0.162732 167.497-1.9029 167.497ZM0.851277 166.808 2.9169 166.808 2.9169 167.497 0.851277 167.497ZM3.60544 166.808 5.67107 166.808 5.67107 167.497 3.60544 167.497ZM6.3596 166.808 8.42527 166.808 8.42527 167.497 6.3596 167.497ZM7.94729 165.087 12.0785 167.153 7.94729 169.218Z"></path><text transform="matrix(5.05932e-17 0.826667 -0.82625 5.06187e-17 613.577 135)" font-size="8" font-weight="400" font-family="Poppins,Poppins_MSFontService,sans-serif" fill="#595959">get<tspan y="9.62927e-16" x="15.7258" font-size="8">new</tspan><tspan y="2.22214e-15" x="36.2903" font-size="8">URL</tspan><tspan y="3.18507e-15" x="52.0161" font-size="8">locatio</tspan><tspan y="4.96278e-15" x="81.0484" font-size="8">n</tspan></text><path transform="scale(1 1.0005)" fill-rule="evenodd" fill="#F2F2F2" stroke-miterlimit="8" stroke-width="1.54922" stroke="#FE5000" d="M48.7488 253.797C48.7488 248.701 52.8797 244.57 57.9754 244.57L132.888 244.57C137.984 244.57 142.115 248.701 142.115 253.797L142.115 290.702C142.115 295.798 137.984 299.929 132.888 299.929L57.9754 299.929C52.8797 299.929 48.7488 295.798 48.7488 290.702Z"></path><text transform="matrix(0.82625 0 0 0.826667 63.8242 269)" font-size="15" font-weight="700" font-family="Poppins,Poppins_MSFontService,sans-serif" fill="#595959">DISCOVER<tspan y="18.1452" x="15.625" font-size="15">ATOM</tspan></text><path transform="scale(1 1.0005)" fill-rule="evenodd" fill="#FBE5D6" d="M474.268 253.865C474.268 258.999 495.539 263.161 521.777 263.161 548.015 263.161 569.286 258.999 569.286 253.865L569.286 309.637C569.286 314.771 548.015 318.932 521.777 318.932 495.539 318.932 474.268 314.771 474.268 309.637Z"></path><path transform="scale(1 1.0005)" fill-rule="evenodd" fill="#FDEFE6" d="M474.268 253.865C474.268 248.732 495.539 244.57 521.777 244.57 548.015 244.57 569.286 248.732 569.286 253.865 569.286 258.999 548.015 263.161 521.777 263.161 495.539 263.161 474.268 258.999 474.268 253.865Z"></path><path transform="scale(1 1.0005)" fill-rule="evenodd" fill="none" stroke-miterlimit="8" stroke-width="1.54922" stroke="#FE5000" d="M569.286 253.865C569.286 258.999 548.015 263.161 521.777 263.161 495.539 263.161 474.268 258.999 474.268 253.865 474.268 248.732 495.539 244.57 521.777 244.57 548.015 244.57 569.286 248.732 569.286 253.865L569.286 309.637C569.286 314.771 548.015 318.932 521.777 318.932 495.539 318.932 474.268 314.771 474.268 309.637L474.268 253.865"></path><text transform="matrix(0.82625 0 0 0.826667 490.089 290)" font-size="15" font-weight="400" font-family="Poppins,Poppins_MSFontService,sans-serif" fill="#595959">STUDIO DB</text><path transform="scale(1 1.0005)" fill="#FE5000" d="M474.55 282.631 472.484 282.631 472.484 281.943 474.55 281.943ZM471.796 282.631 469.731 282.631 469.731 281.943 471.796 281.943ZM469.041 282.631 466.976 282.631 466.976 281.943 469.041 281.943ZM466.288 282.631 464.222 282.631 464.222 281.943 466.288 281.943ZM463.534 282.631 461.468 282.631 461.468 281.943 463.534 281.943ZM460.779 282.631 458.713 282.631 458.713 281.943 460.779 281.943ZM458.025 282.631 455.959 282.631 455.959 281.943 458.025 281.943ZM455.271 282.631 453.206 282.631 453.206 281.943 455.271 281.943ZM452.516 282.631 450.451 282.631 450.451 281.943 452.516 281.943ZM449.763 282.631 447.697 282.631 447.697 281.943 449.763 281.943ZM447.009 282.631 444.943 282.631 444.943 281.943 447.009 281.943ZM444.254 282.631 442.188 282.631 442.188 281.943 444.254 281.943ZM441.5 282.631 439.434 282.631 439.434 281.943 441.5 281.943ZM438.746 282.631 436.681 282.631 436.681 281.943 438.746 281.943ZM435.991 282.631 433.926 282.631 433.926 281.943 435.991 281.943ZM433.238 282.631 431.172 282.631 431.172 281.943 433.238 281.943ZM430.484 282.631 428.418 282.631 428.418 281.943 430.484 281.943ZM427.729 282.631 425.663 282.631 425.663 281.943 427.729 281.943ZM424.975 282.631 422.909 282.631 422.909 281.943 424.975 281.943ZM422.221 282.631 420.156 282.631 420.156 281.943 422.221 281.943ZM419.466 282.631 417.401 282.631 417.401 281.943 419.466 281.943ZM416.713 282.631 414.647 282.631 414.647 281.943 416.713 281.943ZM413.959 282.631 411.893 282.631 411.893 281.943 413.959 281.943ZM411.204 282.631 409.138 282.631 409.138 281.943 411.204 281.943ZM408.45 282.631 406.384 282.631 406.384 281.943 408.45 281.943ZM405.696 282.631 403.631 282.631 403.631 281.943 405.696 281.943ZM402.941 282.631 400.876 282.631 400.876 281.943 402.941 281.943ZM400.188 282.631 398.122 282.631 398.122 281.943 400.188 281.943ZM397.434 282.631 395.368 282.631 395.368 281.943 397.434 281.943ZM394.679 282.631 392.613 282.631 392.613 281.943 394.679 281.943ZM391.925 282.631 389.859 282.631 389.859 281.943 391.925 281.943ZM389.171 282.631 387.106 282.631 387.106 281.943 389.171 281.943ZM386.416 282.631 384.351 282.631 384.351 281.943 386.416 281.943ZM383.663 282.631 381.597 282.631 381.597 281.943 383.663 281.943ZM380.909 282.631 378.843 282.631 378.843 281.943 380.909 281.943ZM378.154 282.631 376.088 282.631 376.088 281.943 378.154 281.943ZM375.4 282.631 373.334 282.631 373.334 281.943 375.4 281.943ZM372.646 282.631 370.581 282.631 370.581 281.943 372.646 281.943ZM369.891 282.631 367.826 282.631 367.826 281.943 369.891 281.943ZM367.138 282.631 365.072 282.631 365.072 281.943 367.138 281.943ZM364.384 282.631 362.318 282.631 362.318 281.943 364.384 281.943ZM361.629 282.631 359.563 282.631 359.563 281.943 361.629 281.943ZM358.875 282.631 356.809 282.631 356.809 281.943 358.875 281.943ZM356.121 282.631 354.056 282.631 354.056 281.943 356.121 281.943ZM353.366 282.631 351.301 282.631 351.301 281.943 353.366 281.943ZM350.613 282.631 348.547 282.631 348.547 281.943 350.613 281.943ZM347.859 282.631 345.793 282.631 345.793 281.943 347.859 281.943ZM345.104 282.631 343.038 282.631 343.038 281.943 345.104 281.943ZM342.35 282.631 340.284 282.631 340.284 281.943 342.35 281.943ZM339.596 282.631 337.531 282.631 337.531 281.943 339.596 281.943ZM336.841 282.631 334.776 282.631 334.776 281.943 336.841 281.943ZM334.088 282.631 332.022 282.631 332.022 281.943 334.088 281.943ZM331.334 282.631 329.268 282.631 329.268 281.943 331.334 281.943ZM328.579 282.631 326.513 282.631 326.513 281.943 328.579 281.943ZM325.825 282.631 323.759 282.631 323.759 281.943 325.825 281.943ZM323.071 282.631 321.006 282.631 321.006 281.943 323.071 281.943ZM320.316 282.631 318.251 282.631 318.251 281.943 320.316 281.943ZM317.563 282.631 315.497 282.631 315.497 281.943 317.563 281.943ZM314.809 282.631 312.743 282.631 312.743 281.943 314.809 281.943ZM312.054 282.631 309.988 282.631 309.988 281.943 312.054 281.943ZM309.3 282.631 308.195 282.631 308.195 280.983 308.884 280.983 308.884 282.287 308.539 281.943 309.3 281.943ZM308.195 280.294 308.195 278.228 308.884 278.228 308.884 280.294ZM308.195 277.54 308.195 275.474 308.884 275.474 308.884 277.54ZM308.195 274.786 308.195 273.076 308.539 273.42 308.184 273.42 308.184 272.731 308.884 272.731 308.884 274.786ZM307.495 273.42 305.429 273.42 305.429 272.731 307.495 272.731ZM304.741 273.42 302.675 273.42 302.675 272.731 304.741 272.731ZM301.987 273.42 299.921 273.42 299.921 272.731 301.987 272.731ZM299.232 273.42 297.167 273.42 297.167 272.731 299.232 272.731ZM296.478 273.42 294.413 273.42 294.413 272.731 296.478 272.731ZM293.724 273.42 291.659 273.42 291.659 272.731 293.724 272.731ZM290.97 273.42 288.904 273.42 288.904 272.731 290.97 272.731ZM288.216 273.42 286.15 273.42 286.15 272.731 288.216 272.731ZM285.462 273.42 283.396 273.42 283.396 272.731 285.462 272.731ZM282.707 273.42 280.642 273.42 280.642 272.731 282.707 272.731ZM279.953 273.42 277.888 273.42 277.888 272.731 279.953 272.731ZM277.199 273.42 275.134 273.42 275.134 272.731 277.199 272.731ZM274.445 273.42 272.379 273.42 272.379 272.731 274.445 272.731ZM271.691 273.42 269.625 273.42 269.625 272.731 271.691 272.731ZM268.937 273.42 266.871 273.42 266.871 272.731 268.937 272.731ZM266.182 273.42 264.117 273.42 264.117 272.731 266.182 272.731ZM263.428 273.42 261.363 273.42 261.363 272.731 263.428 272.731ZM260.674 273.42 258.609 273.42 258.609 272.731 260.674 272.731ZM257.92 273.42 255.854 273.42 255.854 272.731 257.92 272.731ZM255.166 273.42 253.1 273.42 253.1 272.731 255.166 272.731ZM252.412 273.42 250.346 273.42 250.346 272.731 252.412 272.731ZM249.657 273.42 247.592 273.42 247.592 272.731 249.657 272.731ZM246.903 273.42 244.838 273.42 244.838 272.731 246.903 272.731ZM244.149 273.42 242.084 273.42 242.084 272.731 244.149 272.731ZM241.395 273.42 239.329 273.42 239.329 272.731 241.395 272.731ZM238.641 273.42 236.575 273.42 236.575 272.731 238.641 272.731ZM235.887 273.42 233.821 273.42 233.821 272.731 235.887 272.731ZM233.132 273.42 231.067 273.42 231.067 272.731 233.132 272.731ZM230.378 273.42 228.313 273.42 228.313 272.731 230.378 272.731ZM227.624 273.42 225.559 273.42 225.559 272.731 227.624 272.731ZM224.87 273.42 222.804 273.42 222.804 272.731 224.87 272.731ZM222.116 273.42 220.05 273.42 220.05 272.731 222.116 272.731ZM219.362 273.42 217.296 273.42 217.296 272.731 219.362 272.731ZM216.607 273.42 214.542 273.42 214.542 272.731 216.607 272.731ZM213.853 273.42 211.788 273.42 211.788 272.731 213.853 272.731ZM211.099 273.42 209.034 273.42 209.034 272.731 211.099 272.731ZM208.345 273.42 206.279 273.42 206.279 272.731 208.345 272.731ZM205.591 273.42 203.525 273.42 203.525 272.731 205.591 272.731ZM202.837 273.42 200.771 273.42 200.771 272.731 202.837 272.731ZM200.082 273.42 198.017 273.42 198.017 272.731 200.082 272.731ZM197.328 273.42 195.263 273.42 195.263 272.731 197.328 272.731ZM194.574 273.42 192.509 273.42 192.509 272.731 194.574 272.731ZM191.82 273.42 189.754 273.42 189.754 272.731 191.82 272.731ZM189.066 273.42 187 273.42 187 272.731 189.066 272.731ZM186.312 273.42 184.246 273.42 184.246 272.731 186.312 272.731ZM183.557 273.42 181.492 273.42 181.492 272.731 183.557 272.731ZM180.803 273.42 178.738 273.42 178.738 272.731 180.803 272.731ZM178.049 273.42 175.984 273.42 175.984 272.731 178.049 272.731ZM175.295 273.42 173.229 273.42 173.229 272.731 175.295 272.731ZM172.541 273.42 170.475 273.42 170.475 272.731 172.541 272.731ZM169.787 273.42 167.721 273.42 167.721 272.731 169.787 272.731ZM167.032 273.42 164.967 273.42 164.967 272.731 167.032 272.731ZM164.278 273.42 162.213 273.42 162.213 272.731 164.278 272.731ZM161.524 273.42 159.459 273.42 159.459 272.731 161.524 272.731ZM158.77 273.42 156.704 273.42 156.704 272.731 158.77 272.731ZM156.016 273.42 153.95 273.42 153.95 272.731 156.016 272.731ZM153.262 273.42 151.196 273.42 151.196 272.731 153.262 272.731ZM150.507 273.42 148.442 273.42 148.442 272.731 150.507 272.731ZM147.753 273.42 145.97 273.42 145.97 272.731 147.753 272.731ZM146.659 275.141 142.528 273.076 146.659 271.01Z"></path><text transform="matrix(0.82625 0 0 0.826667 482.323 355)" font-size="8" font-weight="400" font-family="Poppins,Poppins_MSFontService,sans-serif" fill="#595959">Fills the <tspan y="0" x="32.7083" font-size="8" fill="#0563C1">metadata</tspan><tspan y="0" x="77.1875" font-size="8">tables</tspan></text><path transform="scale(1 1.0005)" fill-rule="evenodd" fill="#0563C1" d="M509.59 356.278 526.941 356.278 544.292 356.278 544.292 357.104 526.941 357.104 509.59 357.104Z"></path><text transform="matrix(0.82625 0 0 0.826667 212.129 284)" font-size="8" font-weight="400" font-family="Poppins,Poppins_MSFontService,sans-serif" fill="#595959">SHOWS<tspan y="0" x="32.3958" font-size="8">IN</tspan><tspan y="0" x="42.5" font-size="8">ATOM</tspan><tspan y="0" x="68.5417" font-size="8">DISCOVE</tspan>R</text><path transform="scale(1 1.0005)" fill="#FE5000" stroke-miterlimit="8" stroke-width="0.688541" stroke="#FE5000" d="M49.1619 75.6019 94.6056 75.6019 94.6056 90.4744 49.1619 90.4744Z"></path><text transform="matrix(0.82625 0 0 0.826667 59.2861 86)" font-size="12" font-weight="700" font-family="Poppins,Poppins_MSFontService,sans-serif" fill="#404040">USER</text><path transform="scale(1 1.0005)" fill="#FE5000" stroke-miterlimit="8" stroke-width="0.688541" stroke="#FE5000" d="M49.1619 225.153 94.6056 225.153 94.6056 240.026 49.1619 240.026Z"></path><text transform="matrix(0.82625 0 0 0.826667 59.286 236)" font-size="12" font-weight="700" font-family="Poppins,Poppins_MSFontService,sans-serif" fill="#404040">USER</text><path transform="scale(1 1.0005)" fill="#FE5000" stroke-miterlimit="8" stroke-width="0.688541" stroke="#FE5000" d="M225.979 90.4744 272.249 90.4744 272.249 105.347 225.979 105.347Z"></path><text transform="matrix(0.82625 0 0 0.826667 232.193 101)" font-size="12" font-weight="700" font-family="Poppins,Poppins_MSFontService,sans-serif" fill="#404040">ADMIN<tspan y="123.387" x="9.24981" font-size="8" font-weight="400" fill="#595959">RAW DATA</tspan><tspan y="123.387" x="114.187" font-size="8" font-weight="400" fill="#595959">TRANSFORME</tspan><tspan y="123.387" x="167.417" font-size="8" font-weight="400" fill="#595959">D</tspan><tspan y="123.387" x="175.542" font-size="8" font-weight="400" fill="#595959">DATA</tspan></text><path transform="scale(1 1.0005)" fill="#FE5000" stroke-miterlimit="8" stroke-width="0.688541" stroke="#FE5000" d="M474.681 75.6019 520.951 75.6019 520.951 91.3006 474.681 91.3006Z"></path><text transform="matrix(0.82625 0 0 0.826667 480.85 87)" font-size="12" font-weight="700" font-family="Poppins,Poppins_MSFontService,sans-serif" fill="#404040">ADMIN</text><path transform="scale(1 1.0005)" fill="#FE5000" stroke-miterlimit="8" stroke-width="0.688541" stroke="#FE5000" d="M470.549 202.844 515.993 202.844 515.993 217.717 470.549 217.717Z"></path><text transform="matrix(0.82625 0 0 0.826667 476.545 213)" font-size="12" font-weight="700" font-family="Poppins,Poppins_MSFontService,sans-serif" fill="#404040">ADMIN<tspan y="29.0323" x="21.5986" font-size="15" font-weight="400" fill="#595959">HASURA</tspan></text></g></svg>