<svg overflow="hidden" xmlns:xlink="http://www.w3.org/1999/xlink" xmlns="http://www.w3.org/2000/svg" height="24" width="792"><defs><clipPath id="clip0"><rect height="24" width="792" y="39" x="0"></rect></clipPath></defs><g transform="matrix(1 0 0 1 0 -39)" clip-path="url(#clip0)"><path transform="matrix(1 0 0 1.00168 0 -50.8749)" d="M613.774 105.089C614.484 106.001 614.554 107.258 613.947 108.242 613.648 108.69 613.227 109.044 612.736 109.266 612.154 109.521 611.523 109.648 610.887 109.639L606.657 109.639 606.657 98.9967 610.648 98.9967C611.288 98.9792 611.924 99.1019 612.51 99.3558 612.988 99.5623 613.395 99.9046 613.681 100.34 613.938 100.736 614.077 101.198 614.08 101.67 614.101 102.218 613.926 102.756 613.588 103.187 613.242 103.611 612.779 103.925 612.258 104.092 612.836 104.195 613.354 104.513 613.708 104.983M608.387 103.386 610.581 103.386C611.056 103.413 611.525 103.277 611.912 103.001 612.529 102.413 612.553 101.436 611.965 100.819 611.948 100.801 611.93 100.783 611.912 100.766 611.534 100.469 611.06 100.322 610.581 100.354L608.427 100.354ZM612.125 107.683C612.465 107.387 612.651 106.95 612.63 106.499 612.646 106.028 612.45 105.575 612.098 105.262 611.695 104.942 611.188 104.781 610.675 104.81L608.387 104.81 608.387 108.109 610.741 108.109C611.22 108.123 611.69 107.972 612.071 107.683"></path><path transform="matrix(1 0 0 1.00168 0 -50.8749)" d="M623.884 106.127 617.472 106.127C617.523 107.4 618.594 108.393 619.867 108.348 620.706 108.405 621.493 107.94 621.849 107.178L623.724 107.178C623.485 107.929 623.021 108.588 622.394 109.067 621.674 109.582 620.804 109.845 619.92 109.812 619.167 109.821 618.423 109.633 617.765 109.266 617.114 108.921 616.578 108.394 616.222 107.75 615.845 107.052 615.658 106.268 615.676 105.475 615.66 104.681 615.839 103.896 616.195 103.187 616.537 102.55 617.054 102.024 617.685 101.67 618.359 101.291 619.12 101.094 619.893 101.098 620.631 101.087 621.359 101.266 622.008 101.617 622.622 101.956 623.126 102.464 623.458 103.081 623.813 103.742 623.992 104.485 623.977 105.236 623.977 105.521 623.954 105.805 623.911 106.087M622.155 104.677C622.177 104.09 621.927 103.525 621.476 103.147 621.013 102.753 620.421 102.545 619.813 102.562 619.245 102.551 618.693 102.755 618.27 103.134 617.837 103.537 617.567 104.087 617.512 104.677Z"></path><path transform="matrix(1 0 0 1.00168 0 39.0676)" d="M633.209 11.4933 628.061 23.8246 626.265 23.8246 627.968 19.7541 624.669 11.4933 626.598 11.4933 628.965 17.8918 631.413 11.4933 633.209 11.4933Z"></path><path transform="matrix(1 0 0 1.00168 0 -50.8749)" d="M636.016 109.266C635.391 108.905 634.876 108.381 634.526 107.75 634.156 107.049 633.968 106.267 633.98 105.475 633.963 104.679 634.16 103.893 634.552 103.2 634.905 102.554 635.436 102.024 636.082 101.67 637.45 100.961 639.078 100.961 640.445 101.67 641.091 102.023 641.623 102.554 641.975 103.2 642.747 104.614 642.747 106.323 641.975 107.736 641.605 108.383 641.061 108.913 640.406 109.266 639.727 109.631 638.968 109.819 638.197 109.812 637.448 109.819 636.71 109.631 636.056 109.266M639.461 107.936C639.86 107.712 640.187 107.38 640.406 106.978 640.666 106.507 640.795 105.974 640.778 105.435 640.795 104.894 640.672 104.358 640.419 103.879 640.21 103.482 639.892 103.154 639.501 102.934 639.118 102.723 638.688 102.613 638.25 102.615 637.813 102.612 637.382 102.722 637 102.934 636.617 103.158 636.303 103.486 636.096 103.879 635.859 104.362 635.744 104.897 635.763 105.435 635.714 106.195 635.961 106.944 636.455 107.524 636.903 108.009 637.536 108.28 638.197 108.268 638.64 108.272 639.077 108.157 639.461 107.936"></path><path transform="matrix(1 0 0 1.00168 0 -50.8749)" d="M650.249 101.551C650.771 101.827 651.198 102.253 651.473 102.775 651.782 103.375 651.932 104.043 651.912 104.717L651.912 109.679 650.196 109.679 650.196 104.983C650.24 104.356 650.04 103.736 649.637 103.253 648.763 102.455 647.425 102.455 646.551 103.253 646.139 103.731 645.933 104.353 645.979 104.983L645.979 109.679 644.237 109.679 644.237 101.285 645.979 101.285 645.979 102.242C646.267 101.882 646.642 101.602 647.07 101.431 647.516 101.239 647.995 101.139 648.48 101.138 649.095 101.133 649.701 101.274 650.249 101.551"></path><path transform="matrix(1 0 0 1.00168 0 -50.8749)" d="M654.08 103.2C654.405 102.573 654.898 102.048 655.504 101.684 656.617 101.037 657.975 100.968 659.149 101.498 659.643 101.706 660.077 102.036 660.412 102.455L660.412 98.438 662.168 98.438 662.168 109.718 660.412 109.718 660.412 108.388C660.109 108.81 659.707 109.153 659.242 109.386 658.707 109.659 658.112 109.796 657.512 109.785 656.803 109.791 656.108 109.597 655.504 109.226 654.909 108.866 654.418 108.357 654.08 107.75 653.715 107.053 653.532 106.275 653.548 105.488 653.531 104.71 653.715 103.941 654.08 103.253M660.067 104.012C659.844 103.609 659.518 103.273 659.122 103.041 658.743 102.818 658.311 102.703 657.872 102.708 656.951 102.7 656.105 103.216 655.69 104.038 655.443 104.5 655.319 105.018 655.331 105.541 655.319 106.074 655.443 106.6 655.69 107.071 655.907 107.484 656.234 107.829 656.634 108.069 657.816 108.756 659.331 108.355 660.017 107.174 660.035 107.144 660.051 107.115 660.067 107.085 660.527 106.131 660.527 105.019 660.067 104.065"></path><path transform="matrix(1 0 0 1.00168 0 -50.8749)" d="M675.444 103.759C675.162 104.262 674.735 104.67 674.22 104.93 673.553 105.25 672.818 105.406 672.079 105.382L670.15 105.382 670.15 109.679 668.42 109.679 668.42 99.0366 672.079 99.0366C672.789 99.0141 673.494 99.1551 674.141 99.449 674.686 99.686 675.149 100.079 675.471 100.58 675.751 101.069 675.894 101.625 675.883 102.189 675.886 102.718 675.758 103.239 675.511 103.706M673.622 103.453C673.974 103.105 674.151 102.616 674.101 102.123 674.101 100.965 673.449 100.38 672.145 100.38L670.216 100.38 670.216 103.839 672.145 103.839C672.677 103.879 673.204 103.718 673.622 103.386"></path><path transform="matrix(1 0 0 1.00168 0 -50.8749)" d="M678.969 109.266C678.335 108.913 677.813 108.387 677.466 107.75 677.096 107.049 676.909 106.267 676.921 105.475 676.905 104.681 677.098 103.896 677.479 103.2 677.837 102.554 678.373 102.023 679.022 101.67 680.386 100.961 682.009 100.961 683.372 101.67 684.022 102.023 684.558 102.554 684.915 103.2 685.297 103.896 685.49 104.681 685.474 105.475 685.493 106.267 685.295 107.049 684.902 107.736 684.528 108.385 683.98 108.915 683.319 109.266 682.645 109.63 681.891 109.817 681.124 109.812 680.371 109.819 679.629 109.631 678.969 109.266M682.375 107.936C682.78 107.717 683.113 107.384 683.332 106.978 683.803 105.999 683.803 104.858 683.332 103.879 683.118 103.481 682.795 103.153 682.401 102.934 681.627 102.508 680.688 102.508 679.914 102.934 679.527 103.155 679.213 103.483 679.009 103.879 678.772 104.362 678.658 104.897 678.677 105.435 678.626 106.195 678.875 106.944 679.368 107.524 679.813 108.013 680.45 108.285 681.111 108.268 681.55 108.272 681.982 108.157 682.361 107.936"></path><path transform="matrix(1 0 0 1.00168 0 -50.8749)" d="M688.467 109.452C687.979 109.239 687.553 108.905 687.23 108.481 686.941 108.095 686.77 107.633 686.738 107.151L688.547 107.151C688.575 107.508 688.76 107.835 689.052 108.042 689.39 108.293 689.803 108.419 690.223 108.401 690.62 108.425 691.013 108.327 691.354 108.122 691.605 107.965 691.757 107.687 691.753 107.391 691.76 107.089 691.58 106.814 691.301 106.699 690.843 106.484 690.367 106.315 689.877 106.193 689.357 106.055 688.846 105.886 688.348 105.688 687.946 105.527 687.591 105.272 687.31 104.943 687.012 104.565 686.862 104.093 686.884 103.613 686.884 103.173 687.024 102.744 687.283 102.389 687.568 101.994 687.96 101.69 688.414 101.511 688.953 101.288 689.533 101.179 690.117 101.192 690.947 101.151 691.764 101.411 692.418 101.923 693.005 102.409 693.347 103.13 693.349 103.892L691.62 103.892C691.595 103.543 691.431 103.218 691.168 102.987 690.5 102.589 689.667 102.589 688.999 102.987 688.768 103.136 688.628 103.391 688.627 103.666 688.628 103.883 688.72 104.09 688.88 104.238 689.05 104.391 689.248 104.509 689.465 104.584 689.704 104.677 690.05 104.783 690.503 104.916 691.015 105.046 691.516 105.211 692.006 105.408 692.397 105.572 692.744 105.828 693.017 106.153 693.331 106.523 693.492 106.999 693.469 107.484 693.487 107.959 693.347 108.427 693.07 108.814 692.785 109.207 692.399 109.516 691.952 109.705 690.835 110.156 689.585 110.156 688.467 109.705"></path><path transform="matrix(1 0 0 1.00168 0 -50.8749)" d="M696.608 109.452C696.12 109.239 695.694 108.905 695.371 108.481 695.083 108.095 694.911 107.633 694.879 107.151L696.675 107.151C696.703 107.512 696.893 107.84 697.194 108.042 697.528 108.291 697.936 108.417 698.351 108.401 698.747 108.426 699.142 108.329 699.482 108.122 699.74 107.97 699.898 107.691 699.894 107.391 699.901 107.089 699.721 106.814 699.442 106.699 698.984 106.484 698.508 106.315 698.018 106.193 697.496 106.053 696.979 105.884 696.475 105.688 696.079 105.526 695.728 105.27 695.451 104.943 695.142 104.57 694.987 104.095 695.012 103.613 695.012 103.173 695.152 102.744 695.411 102.389 695.701 101.998 696.092 101.695 696.542 101.511 697.075 101.257 697.654 101.117 698.245 101.098 699.078 101.056 699.901 101.316 700.559 101.83 701.146 102.316 701.488 103.037 701.49 103.799L699.708 103.799C699.679 103.448 699.511 103.122 699.242 102.894 698.923 102.66 698.533 102.543 698.138 102.562 697.768 102.538 697.401 102.631 697.087 102.828 696.853 102.973 696.711 103.23 696.715 103.506 696.711 103.722 696.797 103.929 696.954 104.078 697.128 104.232 697.332 104.349 697.553 104.424 697.792 104.517 698.138 104.624 698.59 104.757 699.101 104.889 699.604 105.053 700.094 105.249 700.481 105.42 700.826 105.675 701.104 105.994 701.408 106.369 701.563 106.842 701.544 107.324 701.562 107.799 701.421 108.267 701.144 108.654 700.86 109.048 700.474 109.356 700.027 109.546 698.914 109.997 697.668 109.997 696.555 109.546"></path><path transform="matrix(1 0 0 1.00168 0 -50.8749)" d="M703.565 99.848C703.117 99.4132 703.107 98.6972 703.542 98.2492 703.977 97.8011 704.692 97.7903 705.14 98.2251 705.589 98.66 705.599 99.3759 705.164 99.824 704.95 100.044 704.658 100.168 704.35 100.167 704.056 100.172 703.773 100.057 703.565 99.848M705.215 109.679 703.472 109.679 703.472 101.285 705.215 101.285Z"></path><path transform="matrix(1 0 0 1.00168 0 -50.8749)" d="M710.443 101.524C710.976 101.263 711.564 101.131 712.159 101.138 712.864 101.135 713.557 101.319 714.167 101.67 714.769 102.035 715.257 102.56 715.578 103.187 716.269 104.611 716.269 106.273 715.578 107.696 715.257 108.338 714.765 108.877 714.154 109.253 713.556 109.625 712.864 109.819 712.159 109.812 711.56 109.821 710.967 109.689 710.43 109.426 709.959 109.203 709.548 108.87 709.232 108.455L709.232 109.679 707.49 109.679 707.49 98.438 709.232 98.438 709.232 102.562C709.552 102.138 709.967 101.797 710.443 101.564M713.981 103.972C713.554 103.147 712.702 102.633 711.773 102.642 711.338 102.638 710.911 102.753 710.536 102.974 710.137 103.203 709.81 103.539 709.591 103.945 709.113 104.895 709.113 106.015 709.591 106.965 709.8 107.38 710.13 107.723 710.536 107.949 710.91 108.174 711.337 108.294 711.773 108.295 712.217 108.293 712.654 108.174 713.037 107.949 713.437 107.71 713.764 107.365 713.981 106.952 714.23 106.48 714.352 105.954 714.34 105.422 714.352 104.898 714.229 104.38 713.981 103.919"></path><path transform="matrix(1 0 0 1.00168 0 39.0676)" d="M717.826 8.60667 719.568 8.60667 719.568 19.8738 717.826 19.8738Z"></path><path transform="matrix(1 0 0 1.00168 0 -50.8749)" d="M729.479 106.127 723.067 106.127C723.091 106.741 723.358 107.321 723.812 107.736 724.26 108.148 724.852 108.368 725.461 108.348 726.298 108.407 727.083 107.94 727.43 107.178L729.306 107.178C729.073 107.932 728.607 108.593 727.975 109.067 727.256 109.582 726.386 109.845 725.501 109.812 724.743 109.822 723.995 109.634 723.333 109.266 722.69 108.915 722.16 108.389 721.803 107.75 721.437 107.048 721.255 106.266 721.271 105.475 721.255 104.681 721.433 103.896 721.79 103.187 722.124 102.548 722.636 102.021 723.266 101.67 723.941 101.311 724.696 101.128 725.461 101.138 726.2 101.127 726.927 101.305 727.576 101.657 728.187 101.999 728.69 102.507 729.026 103.12 729.381 103.782 729.56 104.524 729.545 105.275 729.566 105.559 729.566 105.843 729.545 106.127M727.789 104.717C727.799 104.132 727.55 103.573 727.111 103.187 726.646 102.795 726.055 102.587 725.448 102.602 724.88 102.588 724.327 102.792 723.905 103.174 723.471 103.577 723.201 104.127 723.147 104.717Z"></path><path transform="matrix(1 0 0 1.00168 0 -50.8749)" fill="#F05323" d="M148.335 89.7914 138.625 89.7914 138.625 110.41 148.335 110.41C154.022 110.41 158.631 105.8 158.631 100.114 158.631 94.4277 154.022 89.818 148.335 89.818M148.335 107.364 141.964 107.59 141.964 92.8243 148.335 92.8243C152.499 92.8243 154.867 96.3495 154.867 100.101 154.867 103.852 152.499 107.337 148.335 107.337"></path><path transform="matrix(1 0 0 1.00168 0 39.0676)" fill="#F05323" d="M0 3.04626 73.5624 3.04626 73.5624 20.5922 76.888 20.5922 76.888 3.04626 83.1402 3.04626 84.8961 0 84.8961 0 0 0 0 3.04626Z"></path><path transform="matrix(1 0 0 1.00168 0 -50.8749)" fill="#F05323" d="M104.238 101.577C107.696 101.285 109.2 98.6242 109.2 95.711 109.444 92.694 107.196 90.0504 104.179 89.8063 103.973 89.7897 103.766 89.7847 103.559 89.7914L89.4455 89.7914 89.4455 110.41 92.7711 110.41 92.7711 101.631 100.141 101.631 105.196 110.41 108.907 110.41 103.825 101.604 104.238 101.604ZM103.559 98.5311 92.7711 98.5311 92.7711 92.8243 103.559 92.8243C105.169 92.8243 105.874 94.2344 105.874 95.7509 105.874 97.2674 105.222 98.5311 103.559 98.5311"></path><path transform="matrix(1 0 0 1.00168 0 -50.8749)" fill="#F05323" d="M215.592 100.101C215.592 96.3495 217.974 92.8377 222.137 92.8377L228.549 92.8377 230.292 89.7914 222.151 89.7914C216.457 89.7914 211.841 94.4071 211.841 100.101 211.841 105.794 216.457 110.41 222.151 110.41L230.305 110.41 230.305 107.337 222.151 107.337C217.987 107.337 215.606 103.812 215.606 100.101"></path><path transform="matrix(1 0 0 1.00168 0 39.0676)" fill="#F05323" d="M203.7 0 203.7 15.3111 190.797 0 187.657 0 187.657 20.5922 189.32 20.5922 190.983 20.5922 190.983 5.25446 203.886 20.5922 207.026 20.5922 207.026 0 205.363 0 203.7 0Z"></path><path transform="matrix(1 0 0 1.00168 0 39.0676)" fill="#F05323" d="M180.567 3.04626 182.31 0 163.354 0 163.354 20.5922 182.31 20.5922 182.31 17.5592 182.31 17.5459 166.679 17.5459 166.679 11.8126 178.306 11.8126 178.306 8.7397 166.679 8.7397 166.679 3.04626 180.567 3.04626Z"></path><path transform="matrix(1 0 0 1.00168 0 39.0676)" fill="#F05323" d="M131.534 3.04626 133.277 0 114.321 0 114.321 20.5922 133.277 20.5922 133.277 17.5592 133.277 17.5459 117.647 17.5459 117.647 11.8126 129.273 11.8126 129.273 8.7397 117.647 8.7397 117.647 3.04626 131.534 3.04626Z"></path><path transform="matrix(1 0 0 1.00168 0 39.0676)" fill="#F05323" d="M790.257 3.04626 792 0 235.373 0 235.373 20.5922 254.329 20.5922 254.329 17.5592 254.329 17.5459 238.699 17.5459 238.699 11.8126 250.325 11.8126 250.325 8.7397 238.699 8.7397 238.699 3.04626 790.257 3.04626Z"></path></g></svg>